<svg id="Layer_1" data-name="Layer 1" xmlns="http://www.w3.org/2000/svg" xmlns:xlink="http://www.w3.org/1999/xlink" viewBox="0 0 112.49 76.85"><defs><style>.cls-1{fill:url(#linear-gradient);}</style><linearGradient id="linear-gradient" x1="160.9" y1="192.62" x2="279.36" y2="246.89" gradientUnits="userSpaceOnUse"><stop offset="0.34" stop-color="#fff"/><stop offset="1"/></linearGradient></defs><title>dotfiles</title><path class="cls-1" d="M194.7,255c-.42-10.6,5.3-16,12.61-16,4.45,0,7.84,1.38,14.95,4.77,5.41,2.54,9.33,4.45,13.25,4.45s5.62-3.07,5.72-8.9h6.36c.53,11.87-5.62,16-12.19,16-4.24,0-8.06-1.27-15.37-4.66-5-2.44-8.9-4.66-12.72-4.66s-6.15,2.65-6.36,9Z" transform="translate(-194.68 -204.62)"/><path class="cls-1" d="M252.58,281.47l29.58-76.85h7.21l-29.68,76.85Z" transform="translate(-194.68 -204.62)"/><path class="cls-1" d="M294.55,271.72c0-3.92,2.65-6.68,6.36-6.68s6.25,2.76,6.25,6.68-2.44,6.68-6.36,6.68C297.1,278.39,294.55,275.53,294.55,271.72Z" transform="translate(-194.68 -204.62)"/></svg>